<svg xmlns="http://www.w3.org/2000/svg" width="120" height="40" viewBox="0 0 120 40" fill="none">
  <path d="M10 20C10 14.477 14.477 10 20 10L100 10C105.523 10 110 14.477 110 20V20C110 25.523 105.523 30 100 30H20C14.477 30 10 25.523 10 20V20Z" fill="#3B82F6"/>
  <path d="M26.916 22.176C25.928 22.176 25.044 21.984 24.264 21.6C23.496 21.216 22.888 20.668 22.44 19.956C22.004 19.244 21.786 18.412 21.786 17.46C21.786 16.508 22.004 15.676 22.44 14.964C22.888 14.252 23.496 13.704 24.264 13.32C25.044 12.936 25.928 12.744 26.916 12.744C27.904 12.744 28.782 12.936 29.55 13.32C30.33 13.704 30.938 14.252 31.374 14.964C31.822 15.676 32.046 16.508 32.046 17.46C32.046 18.412 31.822 19.244 31.374 19.956C30.938 20.668 30.33 21.216 29.55 21.6C28.782 21.984 27.904 22.176 26.916 22.176ZM26.916 20.088C27.84 20.088 28.566 19.8 29.094 19.224C29.634 18.648 29.904 17.868 29.904 16.884C29.904 15.9 29.634 15.12 29.094 14.544C28.566 13.968 27.84 13.68 26.916 13.68C25.992 13.68 25.26 13.968 24.72 14.544C24.192 15.12 23.928 15.9 23.928 16.884C23.928 17.868 24.192 18.648 24.72 19.224C25.26 19.8 25.992 20.088 26.916 20.088Z" fill="white"/>
  <path d="M39.5971 22H37.5971V12.92H39.5971V22Z" fill="white"/>
  <path d="M47.9501 22.176C46.9501 22.176 46.0541 21.984 45.2621 21.6C44.4701 21.204 43.8501 20.648 43.4021 19.932C42.9661 19.204 42.7481 18.376 42.7481 17.448C42.7481 16.52 42.9661 15.696 43.4021 14.976C43.8501 14.256 44.4581 13.7 45.2261 13.308C46.0061 12.916 46.8781 12.72 47.8421 12.72C48.7941 12.72 49.6301 12.908 50.3501 13.284C51.0821 13.66 51.6541 14.2 52.0661 14.904C52.4781 15.608 52.6841 16.452 52.6841 17.436C52.6841 17.548 52.6781 17.672 52.6661 17.808C52.6661 17.944 52.6601 18.076 52.6481 18.204H44.8661C44.9141 18.924 45.1621 19.492 45.6101 19.908C46.0701 20.324 46.6421 20.532 47.3261 20.532C47.8341 20.532 48.2581 20.424 48.5981 20.208C48.9501 19.98 49.2061 19.688 49.3661 19.332H52.2901C52.0981 19.956 51.7821 20.516 51.3421 21.012C50.9141 21.496 50.3821 21.876 49.7461 22.152C49.1221 22.168 48.5621 22.176 47.9501 22.176ZM47.8421 14.364C47.2301 14.364 46.6901 14.54 46.2221 14.892C45.7541 15.244 45.4621 15.756 45.3461 16.428H50.1301C50.0861 15.804 49.8421 15.3 49.3981 14.916C48.9541 14.532 48.4301 14.376 47.8421 14.34V14.364Z" fill="white"/>
  <path d="M58.1143 22H56.0663V12.92H58.0663V14.424C58.3823 13.872 58.8143 13.452 59.3623 13.164C59.9223 12.876 60.5343 12.732 61.1943 12.732C62.4863 12.732 63.4703 13.144 64.1463 13.968C64.8343 14.792 65.1783 15.932 65.1783 17.388V22H63.1303V17.784C63.1303 16.848 62.9343 16.128 62.5423 15.624C62.1503 15.108 61.5623 14.844 60.7783 14.832C59.9703 14.832 59.3383 15.108 58.8823 15.66C58.4383 16.2 58.1943 16.98 58.1303 18V22H58.1143Z" fill="white"/>
  <path d="M75.2557 22.176C74.4037 22.176 73.6237 21.996 72.9157 21.636C72.2197 21.264 71.6517 20.744 71.2117 20.076C70.7717 19.408 70.5477 18.624 70.5357 17.724C70.5357 16.796 70.7597 15.992 71.2077 15.312C71.6677 14.632 72.2597 14.12 72.9837 13.776C73.7077 13.42 74.5117 13.236 75.3957 13.224C76.1677 13.224 76.8637 13.36 77.4837 13.632C78.1157 13.892 78.6397 14.276 79.0557 14.784C79.4837 15.292 79.7517 15.9 79.8597 16.608H77.7837C77.6277 16.092 77.3357 15.684 76.9077 15.384C76.4797 15.084 75.9517 14.934 75.3237 14.934C74.4997 14.934 73.8397 15.224 73.3437 15.804C72.8597 16.372 72.6117 17.148 72.5997 18.132C72.5997 19.116 72.8417 19.9 73.3257 20.484C73.8097 21.056 74.4637 21.342 75.2877 21.342C75.9157 21.342 76.4437 21.19 76.8717 20.886C77.3117 20.582 77.6037 20.16 77.7477 19.62H79.8357C79.7037 20.34 79.4177 20.958 78.9777 21.474C78.5497 21.99 78.0097 22.384 77.3577 22.656C76.7057 22.928 76.0037 22.196 75.2557 22.176Z" fill="white"/>
  <path d="M81.1764 22V12.92H83.1764V14.424C83.4924 13.884 83.9004 13.468 84.4004 13.176C84.9124 12.884 85.5004 12.732 86.1644 12.732C86.8284 12.732 87.4164 12.888 87.9284 13.2C88.4404 13.5 88.8444 13.916 89.1404 14.448C89.4964 13.928 89.9524 13.516 90.5084 13.212C91.0644 12.896 91.6684 12.738 92.3204 12.738C93.5204 12.738 94.4364 13.14 95.0684 13.944C95.7124 14.748 96.0344 15.884 96.0344 17.352V22H93.9864V17.784C93.9864 16.848 93.7904 16.128 93.3984 15.624C93.0184 15.108 92.4424 14.85 91.6704 14.85C90.8864 14.85 90.2684 15.12 89.8164 15.66C89.3644 16.188 89.1384 16.956 89.1384 17.964V22H87.0904V17.784C87.0904 16.848 86.8944 16.128 86.5024 15.624C86.1224 15.108 85.5404 14.85 84.7564 14.85C83.9724 14.85 83.3544 15.12 82.9024 15.66C82.4624 16.188 82.2364 16.956 82.2244 17.964V22H81.1764Z" fill="white"/>
</svg>
