<svg width="800" height="800" viewBox="0 0 800 800" fill="none" xmlns="http://www.w3.org/2000/svg">
<rect width="800" height="800" fill="#FF6A00"/>
<path d="M335 298.5C335 367.812 278.812 424 209.5 424C140.188 424 84 367.812 84 298.5C84 229.188 140.188 173 209.5 173C278.812 173 335 229.188 335 298.5ZM146.75 298.5C146.75 333.156 174.844 361.25 209.5 361.25C244.156 361.25 272.25 333.156 272.25 298.5C272.25 263.844 244.156 235.75 209.5 235.75C174.844 235.75 146.75 263.844 146.75 298.5Z" fill="#D9D9D9"/>
<path d="M714 496.5C714 565.812 657.812 622 588.5 622C519.188 622 463 565.812 463 496.5C463 427.188 519.188 371 588.5 371C657.812 371 714 427.188 714 496.5ZM525.75 496.5C525.75 531.156 553.844 559.25 588.5 559.25C623.156 559.25 651.25 531.156 651.25 496.5C651.25 461.844 623.156 433.75 588.5 433.75C553.844 433.75 525.75 461.844 525.75 496.5Z" fill="#D9D9D9"/>
<circle cx="398.5" cy="408.5" r="37.5" fill="#D9D9D9"/>
</svg>
