<svg width="630" height="449" viewBox="0 0 630 449" fill="none" xmlns="http://www.w3.org/2000/svg">
<path d="M251 125.5C251 194.812 194.812 251 125.5 251C56.1883 251 0 194.812 0 125.5C0 56.1883 56.1883 0 125.5 0C194.812 0 251 56.1883 251 125.5ZM62.75 125.5C62.75 160.156 90.8441 188.25 125.5 188.25C160.156 188.25 188.25 160.156 188.25 125.5C188.25 90.8441 160.156 62.75 125.5 62.75C90.8441 62.75 62.75 90.8441 62.75 125.5Z" fill="#FF6A00"/>
<path d="M630 323.5C630 392.812 573.812 449 504.5 449C435.188 449 379 392.812 379 323.5C379 254.188 435.188 198 504.5 198C573.812 198 630 254.188 630 323.5ZM441.75 323.5C441.75 358.156 469.844 386.25 504.5 386.25C539.156 386.25 567.25 358.156 567.25 323.5C567.25 288.844 539.156 260.75 504.5 260.75C469.844 260.75 441.75 288.844 441.75 323.5Z" fill="#FF6A00"/>
<circle cx="314.5" cy="235.5" r="37.5" fill="#FF6A00"/>
</svg>
